<svg width="13" height="14" viewBox="0 0 13 14" fill="none" xmlns="http://www.w3.org/2000/svg">
<g clip-path="url(#clip0)">
<path d="M11.3773 5.6875H7.43982V1.75C7.43982 1.26684 7.04798 0.875 6.56482 0.875H5.68982C5.20666 0.875 4.81482 1.26684 4.81482 1.75V5.6875H0.877319C0.394155 5.6875 0.00231934 6.07934 0.00231934 6.5625V7.4375C0.00231934 7.92066 0.394155 8.3125 0.877319 8.3125H4.81482V12.25C4.81482 12.7332 5.20666 13.125 5.68982 13.125H6.56482C7.04798 13.125 7.43982 12.7332 7.43982 12.25V8.3125H11.3773C11.8605 8.3125 12.2523 7.92066 12.2523 7.4375V6.5625C12.2523 6.07934 11.8605 5.6875 11.3773 5.6875Z" fill="white"/>
</g>
<defs>
<clipPath id="clip0">
<rect width="12.2547" height="14" fill="white"/>
</clipPath>
</defs>
</svg>
