<svg width="19" height="15" viewBox="0 0 19 15" fill="none" xmlns="http://www.w3.org/2000/svg">
<g clip-path="url(#clip0)">
<path d="M17.6374 3.47461L15.736 0.439453C15.5661 0.166992 15.2643 0 14.942 0H3.10611C2.78384 0 2.48209 0.166992 2.31216 0.439453L0.410796 3.47461C-0.570649 5.04199 0.299468 7.22168 2.13345 7.4707C2.26529 7.48828 2.40005 7.49707 2.53482 7.49707C3.40201 7.49707 4.16959 7.11621 4.69693 6.52734C5.22427 7.11621 5.99478 7.49707 6.85904 7.49707C7.72623 7.49707 8.4938 7.11621 9.02115 6.52734C9.54849 7.11621 10.319 7.49707 11.1833 7.49707C12.0504 7.49707 12.818 7.11621 13.3454 6.52734C13.8756 7.11621 14.6432 7.49707 15.5075 7.49707C15.6452 7.49707 15.777 7.48828 15.9088 7.4707C17.7487 7.22461 18.6217 5.04492 17.6374 3.47461ZM15.5133 8.4375C15.2204 8.4375 14.9303 8.39355 14.6491 8.32617V11.25H3.39908V8.32617C3.11783 8.39062 2.82779 8.4375 2.53482 8.4375C2.35904 8.4375 2.18033 8.42578 2.00748 8.40234C1.84341 8.37891 1.68228 8.34082 1.52701 8.29688V14.0625C1.52701 14.5811 1.94595 15 2.46451 15H15.5895C16.1081 15 16.527 14.5811 16.527 14.0625V8.29688C16.3688 8.34375 16.2106 8.38184 16.0465 8.40234C15.8678 8.42578 15.692 8.4375 15.5133 8.4375Z" fill="#007754"/>
</g>
<defs>
<clipPath id="clip0">
<rect width="18.0469" height="15" fill="white"/>
</clipPath>
</defs>
</svg>
