<svg width="12" height="15" viewBox="0 0 12 15" fill="none" xmlns="http://www.w3.org/2000/svg">
<g clip-path="url(#clip0)">
<path d="M3.2007 5.07576C3.93282 4.34363 3.93282 3.15623 3.2007 2.4241C2.46857 1.69197 1.28116 1.69197 0.549036 2.4241C-0.183093 3.15623 -0.183093 4.34363 0.549036 5.07576C1.28146 5.80818 2.46857 5.80818 3.2007 5.07576ZM10.7007 9.9241C9.96857 9.19197 8.78116 9.19197 8.04904 9.9241C7.31691 10.6562 7.31691 11.8436 8.04904 12.5758C8.78116 13.3079 9.96857 13.3079 10.7007 12.5758C11.4331 11.8436 11.4331 10.6565 10.7007 9.9241ZM10.6439 3.14392L9.98116 2.48123C9.61495 2.11501 9.0214 2.11501 8.65548 2.48123L0.606165 10.5305C0.239954 10.8968 0.239954 11.4903 0.606165 11.8562L1.26886 12.5189C1.63507 12.8851 2.22863 12.8851 2.59454 12.5189L10.6439 4.4696C11.0101 4.10369 11.0101 3.51013 10.6439 3.14392Z" fill="#535054"/>
</g>
<defs>
<clipPath id="clip0">
<rect width="11.25" height="15" fill="white"/>
</clipPath>
</defs>
</svg>
