<svg width="15" height="15" viewBox="0 0 15 15" fill="none" xmlns="http://www.w3.org/2000/svg">
<path d="M14.5605 7.99818L9.63867 12.9201C9.19922 13.3595 8.4375 13.0519 8.4375 12.422V9.60951H4.45312C4.06348 9.60951 3.75 9.29603 3.75 8.90638V6.09388C3.75 5.70424 4.06348 5.39076 4.45312 5.39076H8.4375V2.57826C8.4375 1.95131 9.19629 1.64076 9.63867 2.08021L14.5605 7.00209C14.833 7.27748 14.833 7.72279 14.5605 7.99818ZM5.625 12.7736V11.6017C5.625 11.4083 5.4668 11.2501 5.27344 11.2501H2.8125C2.29395 11.2501 1.875 10.8312 1.875 10.3126V4.68763C1.875 4.16908 2.29395 3.75013 2.8125 3.75013H5.27344C5.4668 3.75013 5.625 3.59193 5.625 3.39857V2.2267C5.625 2.03334 5.4668 1.87513 5.27344 1.87513H2.8125C1.25977 1.87513 0 3.1349 0 4.68763V10.3126C0 11.8654 1.25977 13.1251 2.8125 13.1251H5.27344C5.4668 13.1251 5.625 12.9669 5.625 12.7736Z" fill="#535054"/>
</svg>
