<svg width="19" height="15" viewBox="0 0 19 15" fill="none" xmlns="http://www.w3.org/2000/svg">
<g clip-path="url(#clip0)">
<path d="M17.8125 1.875H0.9375C0.419824 1.875 0 2.29482 0 2.8125V12.1875C0 12.7052 0.419824 13.125 0.9375 13.125H17.8125C18.3302 13.125 18.75 12.7052 18.75 12.1875V2.8125C18.75 2.29482 18.3302 1.875 17.8125 1.875ZM1.40625 11.7188V9.84375C2.44189 9.84375 3.28125 10.6831 3.28125 11.7188H1.40625ZM1.40625 5.15625V3.28125H3.28125C3.28125 4.31689 2.44189 5.15625 1.40625 5.15625ZM9.375 10.3125C8.08037 10.3125 7.03125 9.05303 7.03125 7.5C7.03125 5.94668 8.08066 4.6875 9.375 4.6875C10.6693 4.6875 11.7188 5.94668 11.7188 7.5C11.7188 9.05361 10.669 10.3125 9.375 10.3125ZM17.3438 11.7188H15.4688C15.4688 10.6831 16.3081 9.84375 17.3438 9.84375V11.7188ZM17.3438 5.15625C16.3081 5.15625 15.4688 4.31689 15.4688 3.28125H17.3438V5.15625Z" fill="#535054"/>
</g>
<defs>
<clipPath id="clip0">
<rect width="18.75" height="15" fill="white"/>
</clipPath>
</defs>
</svg>
