<svg width="15" height="15" viewBox="0 0 15 15" fill="none" xmlns="http://www.w3.org/2000/svg">
<path d="M0 7.38627V1.40625C0 0.62959 0.62959 0 1.40625 0H7.38627C7.75923 1.95022e-06 8.11691 0.148161 8.38063 0.411885L14.5881 6.61936C15.1373 7.16853 15.1373 8.05893 14.5881 8.6081L8.6081 14.5881C8.05893 15.1373 7.16853 15.1373 6.61936 14.5881L0.411885 8.38063C0.148161 8.11691 1.95022e-06 7.75923 0 7.38627H0ZM3.28125 1.875C2.50459 1.875 1.875 2.50459 1.875 3.28125C1.875 4.05791 2.50459 4.6875 3.28125 4.6875C4.05791 4.6875 4.6875 4.05791 4.6875 3.28125C4.6875 2.50459 4.05791 1.875 3.28125 1.875Z" fill="#535054"/>
</svg>
