<svg width="15" height="15" viewBox="0 0 15 15" fill="none" xmlns="http://www.w3.org/2000/svg">
<path d="M14.2793 9.24905L13.0312 8.52835C13.1572 7.84866 13.1572 7.15139 13.0312 6.47171L14.2793 5.751C14.4228 5.66897 14.4873 5.49905 14.4404 5.34085C14.1152 4.29788 13.5615 3.35452 12.8379 2.56936C12.7266 2.44925 12.5449 2.41995 12.4043 2.50198L11.1562 3.22268C10.6318 2.77151 10.0283 2.42288 9.375 2.19436V0.755887C9.375 0.591824 9.26074 0.44827 9.09961 0.413113C8.02441 0.172879 6.92285 0.184598 5.90039 0.413113C5.73925 0.44827 5.625 0.591824 5.625 0.755887V2.19729C4.97461 2.42874 4.37109 2.77737 3.84375 3.22561L2.59863 2.50491C2.45507 2.42288 2.27636 2.44925 2.16504 2.57229C1.4414 3.35452 0.887691 4.29788 0.562496 5.34378C0.512691 5.50198 0.580074 5.6719 0.723629 5.75393L1.97168 6.47464C1.8457 7.15432 1.8457 7.85159 1.97168 8.53128L0.723629 9.25198C0.580074 9.33401 0.515621 9.50393 0.562496 9.66214C0.887691 10.7051 1.4414 11.6485 2.16504 12.4336C2.27636 12.5537 2.458 12.583 2.59863 12.501L3.84668 11.7803C4.37109 12.2315 4.97461 12.5801 5.62793 12.8086V14.25C5.62793 14.4141 5.74218 14.5576 5.90332 14.5928C6.97851 14.833 8.08007 14.8213 9.10254 14.5928C9.26367 14.5576 9.37793 14.4141 9.37793 14.25V12.8086C10.0283 12.5772 10.6318 12.2285 11.1592 11.7803L12.4072 12.501C12.5508 12.583 12.7295 12.5567 12.8408 12.4336C13.5644 11.6514 14.1182 10.708 14.4434 9.66214C14.4873 9.501 14.4228 9.33108 14.2793 9.24905ZM7.5 9.84378C6.208 9.84378 5.15625 8.79202 5.15625 7.50003C5.15625 6.20804 6.208 5.15628 7.5 5.15628C8.79199 5.15628 9.84375 6.20804 9.84375 7.50003C9.84375 8.79202 8.79199 9.84378 7.5 9.84378Z" fill="#535054"/>
</svg>
